<?xml version="1.0" encoding="UTF-8" standalone="no"?>
<!-- Created with Inkscape (http://www.inkscape.org/) -->

<svg
   width="67.73333mm"
   height="67.73333mm"
   viewBox="0 0 67.73333 67.73333"
   version="1.1"
   id="svg5"
   xmlns="http://www.w3.org/2000/svg"
   xmlns:svg="http://www.w3.org/2000/svg">
  <defs
     id="defs2" />
  <g
     id="layer1"
     transform="translate(-93.794189,-103.54394)">
    <g
       id="g1164"
       transform="matrix(9.7911587,0,0,9.7911587,-359.40226,-886.41172)"
       style="stroke-width:0.102133">
      <path
         d="m 46.878988,106.17919 h 0.5461 c 0.03492,0 0.05715,-0.0222 0.05715,-0.0572 v -2.47015 c 0,-0.0349 -0.02223,-0.0571 -0.05715,-0.0571 h -0.5461 c -0.03493,0 -0.05398,0.0222 -0.05398,0.0571 v 2.47015 c 0,0.0349 0.01905,0.0572 0.05398,0.0572 z"
         style="font-weight:800;font-size:3.175px;font-family:'LINE Seed JP_OTF';-inkscape-font-specification:'LINE Seed JP_OTF Ultra-Bold';fill:#ff5555;stroke-width:0.612798;stroke-linejoin:bevel"
         id="path820" />
      <path
         d="m 48.989364,106.22999 c 0.619125,0 1.050925,-0.34925 1.203325,-0.84455 0.0064,-0.0254 -0.0063,-0.0476 -0.04127,-0.0572 l -0.536575,-0.14288 c -0.03175,-0.01 -0.0508,0.003 -0.06668,0.0381 -0.09525,0.26353 -0.29845,0.3683 -0.555625,0.3683 -0.37465,0 -0.631825,-0.27305 -0.631825,-0.70485 0,-0.42862 0.254,-0.70485 0.631825,-0.70485 0.22225,0 0.38735,0.0921 0.492125,0.27305 0.0127,0.019 0.03175,0.0317 0.0508,0.0317 0.0063,0 0.0127,-0.003 0.01905,-0.006 l 0.53975,-0.14287 c 0.0254,-0.003 0.04127,-0.0222 0.04127,-0.0444 0,-0.006 -0.0032,-0.0159 -0.0063,-0.0254 -0.180975,-0.46038 -0.574675,-0.7239 -1.13665,-0.7239 -0.7493,0 -1.311274,0.53975 -1.311274,1.34302 0,0.80328 0.523874,1.34303 1.308099,1.34303 z"
         style="font-weight:800;font-size:3.175px;font-family:'LINE Seed JP_OTF';-inkscape-font-specification:'LINE Seed JP_OTF Ultra-Bold';fill:#ff5555;stroke-width:0.612798;stroke-linejoin:bevel"
         id="path822" />
      <path
         d="m 51.530958,106.22999 c 0.76835,0 1.3335,-0.54293 1.3335,-1.34303 0,-0.8001 -0.56515,-1.34302 -1.3335,-1.34302 -0.76835,0 -1.336675,0.54292 -1.336675,1.34302 0,0.8001 0.568325,1.34303 1.336675,1.34303 z m -0.657225,-1.34303 c 0,-0.41592 0.2667,-0.70485 0.657225,-0.70485 0.390525,0 0.65405,0.28893 0.65405,0.70485 0,0.41593 -0.263525,0.70485 -0.65405,0.70485 -0.390525,0 -0.657225,-0.28892 -0.657225,-0.70485 z"
         style="font-weight:800;font-size:3.175px;font-family:'LINE Seed JP_OTF';-inkscape-font-specification:'LINE Seed JP_OTF Ultra-Bold';fill:#ff5555;stroke-width:0.612798;stroke-linejoin:bevel"
         id="path824" />
      <path
         style="fill:#ff5555;fill-opacity:1;stroke-width:0.612798;stroke-linejoin:bevel"
         id="path710"
         d="m 45.778789,101.0509 -1.055373,0 0.527686,-0.91398 z"
         transform="translate(1.9025206,2.7647951)" />
    </g>
  </g>
</svg>
