<?xml version="1.0" encoding="UTF-8" standalone="no"?>
<!-- Created with Inkscape (http://www.inkscape.org/) -->

<svg
   width="135.46666mm"
   height="135.46666mm"
   viewBox="0 0 135.46666 135.46666"
   version="1.1"
   id="svg1"
   inkscape:version="1.4.2 (f4327f4, 2025-05-13)"
   sodipodi:docname="SVG2ICO.svg"
   xmlns:inkscape="http://www.inkscape.org/namespaces/inkscape"
   xmlns:sodipodi="http://sodipodi.sourceforge.net/DTD/sodipodi-0.dtd"
   xmlns:xlink="http://www.w3.org/1999/xlink"
   xmlns="http://www.w3.org/2000/svg"
   xmlns:svg="http://www.w3.org/2000/svg">
  <sodipodi:namedview
     id="namedview1"
     pagecolor="#ffffff"
     bordercolor="#000000"
     borderopacity="0.25"
     inkscape:showpageshadow="2"
     inkscape:pageopacity="0.0"
     inkscape:pagecheckerboard="0"
     inkscape:deskcolor="#d1d1d1"
     inkscape:document-units="mm"
     inkscape:zoom="0.50898197"
     inkscape:cx="-100.20001"
     inkscape:cy="420.44711"
     inkscape:window-width="1920"
     inkscape:window-height="1010"
     inkscape:window-x="-6"
     inkscape:window-y="-6"
     inkscape:window-maximized="1"
     inkscape:current-layer="layer1" />
  <defs
     id="defs1">
    <linearGradient
       id="linearGradient10"
       inkscape:collect="always">
      <stop
         style="stop-color:#005522;stop-opacity:1"
         offset="0"
         id="stop9" />
      <stop
         style="stop-color:#55ff99;stop-opacity:1"
         offset="1"
         id="stop10" />
    </linearGradient>
    <linearGradient
       id="linearGradient7"
       inkscape:collect="always">
      <stop
         style="stop-color:#002255;stop-opacity:1"
         offset="0"
         id="stop7" />
      <stop
         style="stop-color:#5599ff;stop-opacity:1"
         offset="1"
         id="stop8" />
    </linearGradient>
    <linearGradient
       id="linearGradient5"
       inkscape:collect="always">
      <stop
         style="stop-color:#800033;stop-opacity:1"
         offset="0"
         id="stop5" />
      <stop
         style="stop-color:#ff5599;stop-opacity:1"
         offset="1"
         id="stop6" />
    </linearGradient>
    <linearGradient
       id="linearGradient1"
       inkscape:collect="always">
      <stop
         style="stop-color:#660080;stop-opacity:1"
         offset="0"
         id="stop1" />
      <stop
         style="stop-color:#d42aff;stop-opacity:1"
         offset="1"
         id="stop2" />
    </linearGradient>
    <linearGradient
       inkscape:collect="always"
       xlink:href="#linearGradient1"
       id="linearGradient2"
       x1="140.99065"
       y1="94.823784"
       x2="140.99066"
       y2="190.61319"
       gradientUnits="userSpaceOnUse" />
    <linearGradient
       inkscape:collect="always"
       xlink:href="#linearGradient5"
       id="linearGradient6"
       x1="45.201431"
       y1="94.823959"
       x2="45.201431"
       y2="190.61346"
       gradientUnits="userSpaceOnUse"
       gradientTransform="translate(0.028154,-2.3e-4)" />
    <linearGradient
       inkscape:collect="always"
       xlink:href="#linearGradient7"
       id="linearGradient8"
       x1="-126.71945"
       y1="74.985146"
       x2="-126.71945"
       y2="210.45181"
       gradientUnits="userSpaceOnUse"
       gradientTransform="translate(219.84378)" />
    <linearGradient
       inkscape:collect="always"
       xlink:href="#linearGradient10"
       id="linearGradient9"
       gradientUnits="userSpaceOnUse"
       x1="140.99065"
       y1="94.823784"
       x2="140.99066"
       y2="190.61319"
       gradientTransform="rotate(-90,93.124331,142.71848)" />
  </defs>
  <g
     inkscape:label="Layer 1"
     inkscape:groupmode="layer"
     id="layer1"
     transform="translate(-25.362623,-74.985153)">
    <path
       id="path1-1-2"
       style="fill:url(#linearGradient8);fill-opacity:1;stroke-width:0.131"
       d="M 93.124332,74.985139 A 67.73333,67.73333 0 0 0 25.390994,142.71848 67.73333,67.73333 0 0 0 93.124332,210.45181 67.73333,67.73333 0 0 0 160.85766,142.71848 67.73333,67.73333 0 0 0 93.124332,74.985139 Z m 0,29.633341 a 38.099998,38.099998 0 0 1 38.099998,38.1 38.099998,38.099998 0 0 1 -38.099998,38.1 38.099998,38.099998 0 0 1 -38.099998,-38.1 38.099998,38.099998 0 0 1 38.099998,-38.1 z" />
    <path
       id="path1-1"
       style="fill:url(#linearGradient2);stroke-width:0.131;fill-opacity:1"
       d="m 141.01908,94.823733 -20.95376,20.953757 a 38.099998,38.099998 0 0 1 11.15901,26.94099 38.099998,38.099998 0 0 1 -11.15901,26.94099 l 20.95376,20.95376 a 67.73333,67.73333 0 0 0 19.83858,-47.89475 67.73333,67.73333 0 0 0 -19.83858,-47.894747 z" />
    <path
       id="path1-1-9"
       style="fill:url(#linearGradient9);fill-opacity:1;stroke-width:0.131"
       d="M 45.229581,94.823731 66.18334,115.77749 a 38.099998,38.099998 0 0 1 26.94099,-11.15901 38.099998,38.099998 0 0 1 26.94099,11.15901 L 141.01908,94.823731 A 67.73333,67.73333 0 0 0 93.12433,74.985151 67.73333,67.73333 0 0 0 45.229581,94.823731 Z" />
    <path
       id="path1-1-6"
       style="fill:url(#linearGradient6);fill-opacity:1;stroke-width:0.131"
       d="m 45.229584,190.61323 20.95376,-20.95376 a 38.099998,38.099998 0 0 1 -11.15901,-26.94099 38.099998,38.099998 0 0 1 11.15901,-26.94099 L 45.229584,94.82373 a 67.73333,67.73333 0 0 0 -19.83858,47.89475 67.73333,67.73333 0 0 0 19.83858,47.89475 z" />
  </g>
</svg>
